<svg width="18" height="8" viewBox="0 0 18 8" fill="none" xmlns="http://www.w3.org/2000/svg">
<path d="M16.7125 7.5C16.4122 7.50049 16.1212 7.41339 15.89 7.25383L9.00126 2.45896L2.09968 7.08259C1.96822 7.17149 1.81696 7.23788 1.65458 7.27795C1.49221 7.31801 1.32193 7.33095 1.15353 7.31603C0.985134 7.30111 0.821936 7.25863 0.673318 7.19101C0.524701 7.1234 0.393595 7.03199 0.287536 6.92204C0.180778 6.81257 0.101055 6.6866 0.0529475 6.55138C0.00483982 6.41616 -0.0107033 6.27436 0.0072115 6.13412C0.0251263 5.99388 0.0761457 5.85798 0.157337 5.73421C0.238529 5.61045 0.348292 5.50127 0.480317 5.41295L8.19158 0.243477C8.42155 0.0860575 8.71 0 9.00769 0C9.30538 0 9.59383 0.0860575 9.8238 0.243477L17.5351 5.59489C17.6652 5.68474 17.7728 5.79509 17.8516 5.91961C17.9305 6.04414 17.9791 6.18039 17.9946 6.32058C18.0101 6.46076 17.9923 6.60211 17.9421 6.73654C17.8919 6.87098 17.8104 6.99584 17.7021 7.10399C17.5825 7.22677 17.4318 7.32596 17.2607 7.39443C17.0896 7.4629 16.9024 7.49895 16.7125 7.5Z" fill="#B3B3BC"/>
</svg>
