<svg width="16" height="15" viewBox="0 0 16 15" fill="none" xmlns="http://www.w3.org/2000/svg">
<path fill-rule="evenodd" clip-rule="evenodd" d="M0 2.4C0 1.76348 0.252856 1.15303 0.702944 0.702944C1.15303 0.252856 1.76348 0 2.4 0H5.544C5.93909 2.87029e-05 6.32807 0.0975969 6.6764 0.284045C7.02474 0.470493 7.32165 0.740053 7.5408 1.0688L8.1904 2.044C8.26348 2.15353 8.36246 2.24333 8.47857 2.30544C8.59468 2.36754 8.72433 2.40002 8.856 2.4H13.6C14.2365 2.4 14.847 2.65286 15.2971 3.10294C15.7471 3.55303 16 4.16348 16 4.8V12C16 12.6365 15.7471 13.247 15.2971 13.6971C14.847 14.1471 14.2365 14.4 13.6 14.4H2.4C1.76348 14.4 1.15303 14.1471 0.702944 13.6971C0.252856 13.247 0 12.6365 0 12V2.4ZM8.8 6.4C8.8 6.18783 8.71571 5.98434 8.56569 5.83431C8.41566 5.68429 8.21217 5.6 8 5.6C7.78783 5.6 7.58434 5.68429 7.43431 5.83431C7.28429 5.98434 7.2 6.18783 7.2 6.4V9.2688L6.1656 8.2344C6.01472 8.08867 5.81264 8.00804 5.60288 8.00986C5.39312 8.01168 5.19247 8.09582 5.04415 8.24414C4.89582 8.39247 4.81168 8.59312 4.80986 8.80288C4.80804 9.01264 4.88867 9.21472 5.0344 9.3656L7.4344 11.7656C7.58442 11.9156 7.78787 11.9998 8 11.9998C8.21213 11.9998 8.41558 11.9156 8.5656 11.7656L10.9656 9.3656C11.1113 9.21472 11.192 9.01264 11.1901 8.80288C11.1883 8.59312 11.1042 8.39247 10.9559 8.24414C10.8075 8.09582 10.6069 8.01168 10.3971 8.00986C10.1874 8.00804 9.98528 8.08867 9.8344 8.2344L8.8 9.2688V6.4Z" fill="#787887"/>
</svg>
